<?xml version="1.0" encoding="UTF-8"?>
<svg width="40px" height="40px" viewBox="0 0 40 40" version="1.1" xmlns="http://www.w3.org/2000/svg" xmlns:xlink="http://www.w3.org/1999/xlink">
    <!-- Generator: Sketch 40.1 (33804) - http://www.bohemiancoding.com/sketch -->
    <title>Linkedin</title>
    <desc>Created with Sketch.</desc>
    <defs></defs>
    <g id="Page-1" stroke="none" stroke-width="1" fill="none" fill-rule="evenodd">
        <g id="Desktop-HD" transform="translate(-726.000000, -590.000000)">
            <g id="Group-3" transform="translate(675.000000, 591.000000)">
                <g id="Linkedin" transform="translate(52.000000, 0.000000)">
                    <g>
                        <path d="M38,18.9999289 C38,29.4933992 29.4934515,38 19,38 C8.50654849,38 0,29.4933992 0,18.9999289 C0,8.50660079 8.50654849,0 19,0 C29.4934515,0 38,8.50660079 38,18.9999289 Z" id="Background" stroke="#94989E" opacity="0.3"></path>
                        <path d="M26.3,11 L11.7,11 C11.3,11 11,11.3 11,11.7 L11,26.4 C11,26.7 11.3,27 11.7,27 L26.4,27 C26.8,27 27.1,26.7 27.1,26.3 L27.1,11.7 C27,11.3 26.7,11 26.3,11 L26.3,11 Z M15.7,24.6 L13.4,24.6 L13.4,17 L15.8,17 L15.8,24.6 L15.7,24.6 Z M14.6,16 C13.8,16 13.2,15.3 13.2,14.6 C13.2,13.8 13.8,13.2 14.6,13.2 C15.4,13.2 16,13.8 16,14.6 C15.9,15.3 15.3,16 14.6,16 L14.6,16 Z M24.6,24.6 L22.2,24.6 L22.2,20.9 C22.2,20 22.2,18.9 21,18.9 C19.8,18.9 19.6,19.9 19.6,20.9 L19.6,24.7 L17.2,24.7 L17.2,17 L19.5,17 L19.5,18 L19.5,18 C19.8,17.4 20.6,16.8 21.7,16.8 C24.1,16.8 24.5,18.4 24.5,20.4 L24.5,24.6 L24.6,24.6 Z" id="Shape" fill="#6F7276"></path>
                    </g>
                </g>
            </g>
        </g>
    </g>
</svg>